<?xml version="1.0" standalone="no"?>
<!DOCTYPE svg PUBLIC "-//W3C//DTD SVG 20010904//EN"
 "http://www.w3.org/TR/2001/REC-SVG-20010904/DTD/svg10.dtd">
<svg version="1.0" xmlns="http://www.w3.org/2000/svg"
 width="121.000000pt" height="121.000000pt" viewBox="0 0 121.000000 121.000000"
 preserveAspectRatio="xMidYMid meet">
<metadata>
Created by potrace 1.14, written by Peter Selinger 2001-2017
</metadata>
<g transform="translate(0.000000,121.000000) scale(0.100000,-0.100000)"
fill="#000000" stroke="none">
<path d="M299 910 c-164 -164 -299 -301 -299 -303 0 -5 568 -575 594 -596 16
-13 44 12 317 285 164 164 299 303 299 309 0 12 -591 605 -603 605 -4 0 -143
-135 -308 -300z m599 -587 c-156 -156 -287 -283 -291 -283 -4 0 -134 126 -288
280 -179 180 -277 285 -273 293 4 7 132 137 283 290 l276 277 287 -287 288
-288 -282 -282z"/>
<path d="M392 827 c-116 -117 -212 -217 -212 -222 0 -6 96 -106 213 -223 l213
-213 214 216 c118 118 214 220 212 226 -2 8 -418 429 -425 429 -1 0 -98 -96
-215 -213z m259 133 c22 -22 39 -40 37 -41 -2 -1 -40 -2 -85 -3 l-83 -2 42 43
c23 24 44 43 45 43 2 0 22 -18 44 -40z m156 -155 l83 -83 0 -115 0 -116 -85
-84 -84 -83 -115 0 -116 1 -82 82 -83 83 0 115 0 115 84 84 85 85 115 -1 115
-1 83 -82z m-509 -201 l0 -87 -44 44 -44 43 42 43 c23 24 43 43 44 43 1 0 2
-39 2 -86z m702 3 c0 -8 -80 -87 -81 -80 -3 31 -5 149 -2 156 4 6 83 -66 83
-76z m-310 -312 c0 -1 -19 -22 -41 -45 l-41 -42 -45 44 -44 44 85 1 c48 0 86
-1 86 -2z"/>
<path d="M517 792 l-97 -3 2 -182 3 -182 183 -3 182 -2 1 22 c1 26 1 291 0
325 -1 20 -7 22 -88 25 -49 2 -132 2 -186 0z m240 -36 c10 -10 11 -296 1 -302
-7 -4 -147 -7 -265 -5 l-43 1 0 158 0 157 150 -1 c82 0 153 -4 157 -8z"/>
</g>
</svg>
